<?xml version="1.0" standalone="no"?>
<!DOCTYPE svg PUBLIC "-//W3C//DTD SVG 20010904//EN"
 "http://www.w3.org/TR/2001/REC-SVG-20010904/DTD/svg10.dtd">
<svg version="1.0" xmlns="http://www.w3.org/2000/svg"
 width="1200.000000pt" height="630.000000pt" viewBox="0 0 1200.000000 630.000000"
 preserveAspectRatio="xMidYMid meet">

<g transform="translate(0.000000,630.000000) scale(0.100000,-0.100000)"
fill="#000000" stroke="none">
<path d="M5795 6285 c-361 -51 -664 -204 -918 -462 -49 -49 -117 -130 -153
-179 -85 -118 -195 -342 -233 -474 -57 -200 -61 -252 -64 -970 l-2 -655 -30
-2 c-307 -26 -543 -177 -669 -430 -44 -86 -63 -146 -76 -231 -7 -44 -10 -437
-8 -1157 l3 -1090 31 -86 c93 -261 264 -429 524 -516 l85 -28 1715 0 1715 0
85 28 c260 87 431 255 524 516 l31 86 3 1090 c3 1102 1 1167 -34 1272 -104
315 -364 513 -716 546 l-27 2 -4 660 c-5 723 -7 753 -68 963 -31 109 -102 270
-165 375 -147 243 -396 470 -656 598 -75 36 -228 92 -317 114 -169 43 -402 55
-576 30z m357 -789 c291 -57 532 -284 611 -578 22 -82 22 -93 22 -728 l0 -645
-785 0 -785 0 0 645 c0 635 0 646 22 728 78 289 318 519 603 577 88 18 222 18
312 1z m-46 -3150 c126 -33 239 -148 274 -279 18 -68 8 -194 -21 -254 -12 -27
-53 -78 -91 -116 l-68 -67 0 -328 c0 -188 -4 -342 -10 -363 -16 -57 -51 -102
-100 -126 -114 -58 -245 1 -280 126 -6 21 -10 175 -10 363 l0 328 -68 67 c-86
86 -112 138 -119 243 -11 160 55 283 202 375 68 42 196 56 291 31z"/>
</g>
</svg>
