<svg width="1280" height="1243" version="1.1" xmlns="http://www.w3.org/2000/svg" desc="Created with imagetracer.js version 1.2.6" ><path fill="rgb(255,255,255)" stroke="rgb(255,255,255)" stroke-width="1" opacity="0.01568627450980392" d="M 433.5 18 L 820 18.5 L 433 19.5 L 820.5 20 L 825.5 19 L 826.5 22 L 828.5 23 L 830 22.5 L 829.5 24 Q 832.8 22.9 832 25.5 L 831 26.5 L 831 411 L 1252 411.5 L 832 412.5 L 1251.5 413 L 1255.5 414 L 1255.5 413 L 1254 412.5 L 1255.5 412 L 1256.5 415 L 1258.5 414 L 1263 420.5 L 1263 809.5 Q 1261.6 815.6 1256.5 818 L 1254.5 817 L 833.5 817 L 833.5 818 L 1254 818.5 L 833.5 819 Q 832.3 816.8 831 819.5 L 831 1217.5 L 832 1218.5 L 825.5 1224 L 824.5 1223 L 429.5 1223 L 427.5 1224 L 423 1219.5 L 423 1217.5 L 422.5 1216 L 421 1216.5 L 423 1213.5 L 422 1212.5 L 421.5 818 L 420.5 1213 L 420 819 L 26 818.5 L 421 817.5 L 25.5 817 L 23.5 818 Q 18.4 815.6 17 809.5 L 17 420.5 L 21.5 414 L 23.5 415 L 24.5 412 L 26 412.5 L 24 413.5 L 27.5 414 L 28.5 413 L 422 412.5 L 28 411.5 L 420 411 L 420.5 31 L 421.5 411 L 422 30.5 L 423 29.5 L 421 26.5 L 423 26.5 L 425 23.5 Q 422.2 21.7 426.5 20 L 433.5 18 Z M 429 20 L 429 21 L 433 21 L 429 20 Z M 822 20 L 822 21 L 826 21 L 822 20 Z M 430 22 L 428 23 L 424 28 L 424 412 L 423 414 L 420 415 L 26 415 L 22 417 L 20 424 L 20 807 L 22 813 L 29 816 L 423 816 L 424 819 L 424 1217 L 429 1221 L 434 1222 L 821 1222 L 826 1221 L 830 1216 L 830 818 L 832 816 L 1252 816 L 1257 814 L 1260 807 L 1260 424 L 1258 417 L 1255 415 L 835 415 L 832 414 L 830 413 L 830 28 L 829 26 L 825 22 L 430 22 Z M 19 420 L 18 810 L 19 810 L 19 420 Z M 1262 420 L 1261 810 L 1262 810 L 1262 420 Z " /><path fill="rgb(255,255,255)" stroke="rgb(255,255,255)" stroke-width="1" opacity="0.01568627450980392" d="M 832.5 27 L 833 31.5 L 832 31.5 L 832.5 27 Z " /><path fill="rgb(255,255,255)" stroke="rgb(255,255,255)" stroke-width="1" opacity="0.01568627450980392" d="M 832.5 1211 L 833 1216.5 L 832 1216.5 L 832.5 1211 Z " /><path fill="rgb(255,255,255)" stroke="rgb(255,255,255)" stroke-width="1" opacity="0.01568627450980392" d="M 430.5 1224 L 824 1224.5 L 430.5 1225 L 430.5 1224 Z " /><path fill="rgb(0,0,0)" stroke="rgb(0,0,0)" stroke-width="1" opacity="0" d="M 0 0 L 1280 0 L 1280 1243 L 0 1243 L 0 0 Z M 434 18 L 434 19 L 820 19 L 434 18 Z M 429 19 L 429 20 L 433 20 L 429 19 Z M 822 19 L 822 20 L 826 20 L 822 19 Z M 434 20 L 427 22 L 423 27 L 421 27 L 423 30 L 422 31 L 422 411 L 421 31 L 420 411 L 28 412 L 422 413 L 29 413 L 23 415 L 21 415 L 19 418 L 21 418 L 18 419 L 19 421 L 19 810 L 18 811 L 19 813 L 20 811 L 20 813 L 26 817 L 421 817 L 422 819 L 422 1213 L 423 1214 L 422 1216 L 423 1218 L 430 1223 L 825 1223 L 827 1222 L 831 1218 L 831 820 L 834 817 L 1255 817 L 1257 816 L 1261 811 L 1261 813 L 1262 813 L 1261 810 L 1261 421 L 1262 419 L 1259 418 L 1261 418 L 1261 417 Q 1260 414 1259 416 L 1252 413 L 832 413 L 1252 412 L 831 411 L 831 27 L 830 26 L 832 26 L 832 24 L 821 20 L 434 20 Z M 833 27 L 832 32 L 833 32 L 833 27 Z M 18 420 L 17 810 L 18 810 L 18 420 Z M 1263 420 L 1262 810 L 1263 810 L 1263 420 Z M 27 818 L 27 819 L 420 819 L 420 1213 L 421 1213 L 421 818 L 27 818 Z M 834 818 L 834 819 L 1254 819 L 834 818 Z M 833 1211 L 832 1217 L 833 1217 L 833 1211 Z M 431 1224 L 431 1225 L 824 1225 L 431 1224 Z " /><path fill="rgb(246,215,215)" stroke="rgb(246,215,215)" stroke-width="1" opacity="0.8745098039215686" d="M 429.5 22 L 824.5 22 L 829 25.5 L 830 27.5 L 830 412.5 L 831.5 414 L 834.5 415 L 1254.5 415 L 1258 417 L 1260 423.5 L 1260 806.5 L 1256.5 814 L 1251.5 816 L 831.5 816 L 830 817.5 L 830 1215.5 L 825.5 1221 L 820.5 1222 L 433.5 1222 L 428.5 1221 L 424 1216.5 L 424 818.5 L 423 816 L 28.5 816 L 22 812.5 L 20 806.5 L 20 423.5 L 22 417 L 25.5 415 L 419.5 415 L 423 414 L 424 411.5 L 424 27.5 L 427.5 23 L 429.5 22 Z M 428 26 L 428 419 L 25 419 L 25 811 L 428 811 L 428 1217 L 826 1217 L 826 811 L 1255 811 L 1255 419 L 826 419 L 826 26 L 428 26 Z " /><path fill="rgb(200,0,0)" stroke="rgb(200,0,0)" stroke-width="1" opacity="1" d="M 824.5 26 L 825 419 L 1255 419 L 1255 811 L 825 811 L 825 1217 L 428.5 1217 L 428.5 1216 L 824 1216 L 824 811.5 L 825.5 810 L 1254 810 L 1254 420 L 825.5 420 L 824 418.5 L 824.5 26 Z " /><path fill="rgb(200,0,0)" stroke="rgb(200,0,0)" stroke-width="1" opacity="1" d="M 428 27 L 823 27.5 L 430 28 L 430 417.5 L 429 420 L 26 420 L 26 810 L 428.5 810 L 429 811.5 L 430 812.5 L 430 1215 L 428 1214.5 L 428 811 L 25 811 L 25 419 L 428 419 L 428 27 Z " /><path fill="rgb(201,0,0)" stroke="rgb(201,0,0)" stroke-width="1" opacity="1" d="M 428.5 26 L 824 26 L 824 418.5 L 825 418.5 L 825.5 26 L 826 418.5 L 825.5 420 L 1254 420 L 1254 810 L 825 810.5 L 826 811.5 L 826 1216.5 L 825 1216.5 L 824.5 811 L 824 1216 L 428 1215.5 L 430 1215 L 430 812.5 L 429 810 L 26 810 L 26 420 L 428.5 420 L 429 418.5 L 430 417.5 L 430 28 L 823 27.5 L 428.5 27 L 428.5 26 Z " /></svg>