<?xml version="1.0" standalone="no"?>
<!DOCTYPE svg PUBLIC "-//W3C//DTD SVG 20010904//EN"
 "http://www.w3.org/TR/2001/REC-SVG-20010904/DTD/svg10.dtd">
<svg version="1.0" xmlns="http://www.w3.org/2000/svg"
 width="1200.000000pt" height="630.000000pt" viewBox="0 0 1200.000000 630.000000"
 preserveAspectRatio="xMidYMid meet">

<g transform="translate(0.000000,630.000000) scale(0.100000,-0.100000)"
fill="#000000" stroke="none">
<path d="M5840 6294 c-262 -31 -426 -74 -615 -163 -192 -90 -347 -202 -521
-375 -249 -249 -398 -503 -480 -816 -55 -209 -56 -238 -61 -1041 l-5 -747
-112 -4 c-98 -4 -119 -8 -176 -34 -106 -50 -192 -150 -218 -257 -17 -66 -17
-2498 0 -2564 26 -107 111 -207 218 -257 l65 -31 2065 0 2065 0 65 31 c107 50
192 150 218 257 17 66 17 2498 0 2564 -26 107 -111 207 -218 257 l-65 31
-1557 3 -1558 2 0 705 c0 672 1 709 21 812 42 218 142 399 311 559 202 191
436 284 718 284 294 0 526 -96 736 -304 105 -104 186 -223 237 -346 39 -95 77
-274 77 -366 0 -95 23 -156 81 -214 73 -73 114 -82 337 -78 197 3 219 9 288
76 63 61 78 109 76 242 -6 382 -124 724 -356 1035 -76 102 -277 303 -381 382
-244 183 -502 292 -815 343 -68 11 -380 21 -440 14z m320 -3730 c193 -53 354
-219 405 -419 19 -76 19 -205 0 -280 -30 -115 -71 -184 -166 -277 l-88 -87 -3
-413 -3 -413 -28 -58 c-104 -211 -450 -211 -554 0 l-28 58 -3 413 -3 413 -88
87 c-66 65 -96 103 -119 153 -122 258 -61 543 153 715 148 120 338 159 525
108z"/>
</g>
</svg>
